<?xml version="1.0" encoding="UTF-8" standalone="no"?>
<!-- Created with Inkscape (http://www.inkscape.org/) -->

<svg
   xmlns:dc="http://purl.org/dc/elements/1.1/"
   xmlns:cc="http://creativecommons.org/ns#"
   xmlns:rdf="http://www.w3.org/1999/02/22-rdf-syntax-ns#"
   xmlns:svg="http://www.w3.org/2000/svg"
   xmlns="http://www.w3.org/2000/svg"
   xmlns:sodipodi="http://sodipodi.sourceforge.net/DTD/sodipodi-0.dtd"
   xmlns:inkscape="http://www.inkscape.org/namespaces/inkscape"
   id="svg2"
   version="1.1"
   inkscape:version="0.91 r13725"
   width="439"
   height="132"
   viewBox="0 0 439 132"
   sodipodi:docname="s1.svg">
  <metadata
     id="metadata8">
    <rdf:RDF>
      <cc:Work
         rdf:about="">
        <dc:format>image/svg+xml</dc:format>
        <dc:type
           rdf:resource="http://purl.org/dc/dcmitype/StillImage" />
        <dc:title></dc:title>
      </cc:Work>
    </rdf:RDF>
  </metadata>
  <defs
     id="defs6" />
  <sodipodi:namedview
     pagecolor="#ffffff"
     bordercolor="#666666"
     borderopacity="1"
     objecttolerance="10"
     gridtolerance="10"
     guidetolerance="10"
     inkscape:pageopacity="0"
     inkscape:pageshadow="2"
     inkscape:window-width="1366"
     inkscape:window-height="705"
     id="namedview4"
     showgrid="false"
     inkscape:zoom="0.86560364"
     inkscape:cx="218.34474"
     inkscape:cy="66"
     inkscape:window-x="-8"
     inkscape:window-y="32"
     inkscape:window-maximized="1"
     inkscape:current-layer="svg2" />
  <path
     style="fill:#414d5b"
     d="m 237.83906,125.39592 c -5.12759,-1.82873 -7.49927,-4.1522 -8.66773,-8.49151 -1.99983,-7.4268 1.88292,-14.33526 14.3557,-25.542655 4.51446,-4.056458 7.62823,-7.644151 7.62823,-8.789266 0,-1.705186 -0.40598,-1.578482 -3.41912,1.067093 -6.22898,5.469112 -14.80925,5.012665 -20.43088,-1.086867 l -2.35001,-2.549778 -2.97638,3.389917 c -5.21597,5.940654 -13.35496,5.327644 -17.51153,-1.318928 -0.93872,-1.501055 -1.84002,-2.913749 -2.00288,-3.139321 -0.16287,-0.225572 -1.85607,1.196089 -3.76266,3.159247 -8.09686,8.337067 -20.419,6.71565 -24.53815,-3.228868 -0.68807,-1.661136 -1.53394,-3.006024 -1.87971,-2.98864 -0.34577,0.01738 -1.83003,2.012137 -3.29835,4.432782 -3.21897,5.30673 -7.79559,7.96644 -12.20181,7.091098 -5.65611,-1.123647 -8.96617,-5.146784 -11.09255,-13.482177 l -1.13216,-4.438072 -2.61269,4.432381 c -5.81633,9.867283 -14.23911,14.553281 -24.4455,13.600194 -11.61703,-1.084815 -15.54866,-5.555682 -9.87498,-11.229367 l 2.47065,-2.470644 4.99079,2.766098 c 5.66965,3.142345 7.77693,2.639061 9.40538,-2.246295 1.23212,-3.69635 -1.79452,-9.662232 -7.16923,-14.131441 l -3.78081,-3.143835 -6.44371,10.643835 C 96.893059,84.559211 89.63798,90.35672 83.653887,86.435791 79.921412,83.99018 79.030379,78.571038 79.358876,60.314127 79.526534,50.99615 79.268992,43.971174 78.765907,44.139707 75.127312,45.358631 65.210883,69.253861 63.53346,80.844736 c -0.35818,2.475 -1.094903,5.0625 -1.637162,5.75 -1.510397,1.91495 -6.504598,1.486437 -8.741035,-0.75 -1.893467,-1.893467 -2,-3.333333 -2,-27.031385 0,-27.938608 -0.138651,-27.431982 6.787558,-24.801461 l 3.712442,1.409956 0.550534,11.461445 c 0.302794,6.303795 0.640294,10.852753 0.75,10.108797 0.109706,-0.743956 1.920322,-5.024859 4.023591,-9.513117 3.857206,-8.231063 8.182304,-13.095776 12.637221,-14.21389 2.68212,-0.673169 9.943722,2.694153 11.392432,5.282855 0.567676,1.014379 0.734813,7.91533 0.408343,16.86011 -0.900895,24.683199 0.544314,25.810957 10.879816,8.489982 6.43699,-10.787566 6.74473,-11.577313 5.34418,-13.714816 -3.74896,-5.721635 -0.0373,-14.776452 7.04648,-17.190501 8.83203,-3.00981 12.16277,2.594983 6.95535,11.704099 -1.36837,2.39364 -2.48795,4.444349 -2.48795,4.557131 0,0.112782 2.89842,2.333227 6.44093,4.934323 6.36088,4.670482 10.55907,9.848907 10.55907,13.024506 0,3.630224 4.3807,0.63702 6.37975,-4.359097 1.21326,-3.032251 1.62025,-7.435349 1.62025,-17.529173 l 0,-13.479764 -2.75,-0.01101 c -1.5125,-0.0061 -4.4375,-0.289932 -6.5,-0.630842 -3.13689,-0.518492 -3.75,-1.017931 -3.75,-3.054732 0,-5.063478 1.58059,-6.303416 8.03518,-6.303416 l 5.96482,0 0.0137,-5.75 c 0.0211,-8.9119353 0.62849,-10.2499993 4.65259,-10.2499993 1.88817,0 4.70195,0.656182 6.25284,1.458182 2.7634,1.429007 2.80996,1.595926 2.32722,8.3428553 l -0.4926,6.884674 7.82766,0.66168 c 4.30521,0.363924 8.25058,1.084603 8.76749,1.601509 0.58644,0.586439 0.46391,2.088795 -0.32586,3.995464 -1.24643,3.009158 -1.37568,3.055635 -8.49762,3.055635 l -7.23195,0 -0.64673,7.650878 c -1.01638,12.02377 -0.65194,31.510276 0.6597,35.274013 1.48165,4.251571 2.65908,4.67667 5.89758,2.129264 3.77703,-2.971009 5.95145,-8.443473 6.94581,-17.480867 1.17539,-10.682628 3.16884,-16.417311 7.44239,-21.409992 4.37258,-5.108372 9.52136,-6.940976 14.69956,-5.232014 1.95153,0.644062 4.07892,1.810459 4.72754,2.591992 1.01409,1.221908 1.39989,1.200369 2.75402,-0.153754 1.09017,-1.090171 2.6256,-1.404189 4.98992,-1.020512 6.24376,1.013223 6.25121,1.039204 6.06473,21.153224 -0.18654,20.120997 0.6417,24.497768 4.63586,24.497768 3.80072,0 5.42052,-5.019488 5.80863,-18 0.29181,-9.759854 0.72867,-12.332244 2.88706,-17 5.55527,-12.013902 14.5408,-15.909878 22.92491,-9.939863 2.30696,1.6427 2.79105,1.706688 3.27961,0.43351 0.73136,-1.905886 4.91444,-1.918109 8.5752,-0.02506 l 2.83994,1.468591 -0.53608,17.031409 c -0.32401,10.293662 -0.16578,17.031413 0.39996,17.031413 1.12862,0 7.41271,-11.626275 9.87695,-18.273481 1.69512,-4.572523 1.69443,-4.913106 -0.0165,-8.090095 -3.4249,-6.359661 0.25171,-13.636424 6.88986,-13.636424 3.13873,0 5.60661,2.452396 5.60661,5.571429 0,2.767809 0.74104,2.891919 7.98774,1.33778 4.26928,-0.915597 5.48178,-0.831589 7.54922,0.523053 2.97516,1.949395 3.13874,4.874017 0.87077,15.567738 -2.81219,13.259768 -0.56194,26 4.59227,26 3.89401,0 5.12238,-3.973639 5.3177,-17.202175 0.17373,-11.766119 0.3372,-12.66107 3.47717,-19.036054 4.09412,-8.312177 7.74556,-11.146386 14.36042,-11.146386 3.6822,0 5.39733,0.555146 7.33285,2.373469 2.4123,2.266239 2.58664,2.291131 3.85907,0.550986 1.03629,-1.417212 2.09094,-1.676599 4.74271,-1.166448 6.27429,1.207055 6.09638,0.57202 6.25998,22.344086 0.11696,15.565604 0.46196,20.351635 1.56259,21.6775 2.34826,2.828785 5.37116,1.534052 7.83751,-3.356868 1.98548,-3.937334 2.2603,-6.053477 2.33761,-18 0.0482,-7.44596 0.38694,-15.78811 0.75279,-18.53811 l 0.66519,-5 3.98222,0.322603 c 5.81392,0.47099 6.51219,1.468167 6.51219,9.299842 0,3.782655 0.36782,6.877555 0.81738,6.877555 0.44956,0 1.56941,-2.3625 2.48857,-5.25 2.13349,-6.702282 5.23149,-11.75 7.21147,-11.75 2.85891,0 8.31197,2.812686 9.40209,4.8496 0.59427,1.110405 1.08049,5.648501 1.08049,10.084659 0,4.436157 0.37702,8.065741 0.83782,8.065741 0.4608,0 2.32123,-4.529218 4.13428,-10.064928 4.10017,-12.51888 5.78883,-14.061897 12.55941,-11.476187 2.47023,0.943386 4.90349,2.485398 5.40725,3.426692 0.50377,0.941294 0.85881,8.889614 0.78898,17.662934 -0.13166,16.54185 0.88727,22.70604 3.94738,23.880314 2.43461,0.93425 4.19801,-1.184604 5.92236,-7.116145 1.18091,-4.062207 1.9951,-5.346083 3.2399,-5.10896 3.57546,0.681087 1.92752,11.545367 -2.56024,16.878759 -6.0705,7.214383 -16.61402,3.256963 -19.78675,-7.42679 -0.81041,-2.728957 -1.77221,-9.880265 -2.13732,-15.891794 -0.64596,-10.635568 -0.70264,-10.840252 -2.10371,-7.596975 -1.96699,4.553296 -5.22014,20.398132 -5.23622,25.503625 -0.0121,3.829156 -0.26204,4.225212 -3.05378,4.838381 -3.29854,0.72448 -7.17647,-1.150805 -8.80711,-4.258926 -1.23785,-2.359448 -3.15225,-17.183308 -3.15225,-24.409004 0,-3.212548 -0.41767,-5.840996 -0.92815,-5.840996 -1.06863,0 -4.66007,9.154234 -6.00858,15.315312 -0.50376,2.301579 -1.2326,8.353302 -1.61965,13.448276 -0.65717,8.650861 -0.86091,9.30304 -3.08024,9.860058 -3.49951,0.87832 -9.16528,-0.451705 -10.28279,-2.413859 -0.81037,-1.422878 -1.27639,-1.499631 -2.77718,-0.457399 -6.23879,4.332562 -11.65168,3.892858 -16.22702,-1.318167 -1.69201,-1.927097 -3.07639,-3.953813 -3.07639,-4.503813 0,-0.55 -1.35573,0.544089 -3.01273,2.43131 -3.78068,4.305961 -10.22278,7.004282 -14.71179,6.16214 -1.82503,-0.342378 -4.90683,-2.017304 -6.84843,-3.722057 l -3.5302,-3.09955 -1.50913,2.154586 c -5.54574,7.917655 -16.36841,5.814887 -21.62387,-4.201363 -1.83103,-3.489721 -2.1727,-5.757585 -2.13266,-14.155474 0.0262,-5.5 0.53366,-11.6875 1.12764,-13.75 l 1.07996,-3.75 -3.84226,0 -3.84226,0 -4.94839,10.25 c -2.72162,5.6375 -7.34812,13.625 -10.28113,17.75 l -5.33273,7.5 -0.16982,12.5 c -0.24914,18.339494 -3.83908,26.352834 -13.64008,30.446944 -4.46973,1.86711 -6.11212,1.88254 -11.09832,0.10424 z m 9.72777,-6.87184 c 1.57098,-1.57098 2.68695,-4.42409 3.45454,-8.83191 1.33057,-7.64068 1.49191,-16.156716 0.29709,-15.680767 -1.4532,0.578867 -10.06166,10.734877 -11.52261,13.594027 -2.72772,5.33828 -2.95428,8.92562 -0.70574,11.17416 2.7023,2.70229 5.60645,2.61475 8.47672,-0.25551 z M 193.84941,78.346411 c 3.7384,-2.61848 5.80585,-9.952358 5.80585,-20.595135 0,-12.909848 -2.41014,-17.149846 -8.83225,-15.537999 -6.86025,1.721813 -10.03775,25.560799 -4.59905,34.504027 2.08959,3.436063 4.35475,3.919993 7.62545,1.629107 z m 51.30168,-1.343658 c 3.47946,-3.479462 5.16649,-9.382488 5.32659,-18.638087 0.15383,-8.893234 -0.95746,-14.51993 -2.86773,-14.51993 -0.80008,0 -1.45469,-0.45 -1.45469,-1 0,-0.55 -1.04656,-1 -2.32569,-1 -2.56898,0 -6.49556,3.622604 -7.14675,6.593485 -0.22984,1.048583 -0.89257,3.478544 -1.47273,5.399913 -2.28385,7.563664 -0.93075,20.276249 2.56987,24.144394 2.32413,2.568133 4.05303,2.338326 7.37113,-0.979775 z m 89.38898,-0.203486 c 4.36379,-5.186075 6.52178,-17.270534 4.67375,-26.17243 -1.32974,-6.405338 -3.69197,-9.073133 -7.62123,-8.607057 -5.53388,0.656413 -8.37261,7.778011 -8.41347,21.107075 -0.0446,14.531696 5.26313,20.919258 11.36095,13.672412 z M 26.521492,96.356729 c -0.328813,-0.856871 -0.06332,-3.460108 0.589989,-5.78497 1.672844,-5.953 2.735791,-73.435014 1.181203,-74.989602 -1.442509,-1.442509 -3.31976,0.803739 -6.859555,8.207883 -3.780842,7.90834 -4.320605,18.269236 -1.279076,24.552196 1.656509,3.421891 1.957013,4.946697 1.136569,5.767141 C 19.603882,55.796117 13.90004,52.688408 10.50464,48.23269 7.97899,44.918328 7.6600871,43.689764 7.6977221,37.419122 7.7332763,31.495185 8.2477982,29.369005 10.86164,24.344736 14.205217,17.917787 20.450707,10.855138 25.528564,7.7587927 29.313972,5.4505497 35.896909,5.2750497 38.932757,7.4014407 l 2.222506,1.556704 0,34.7617943 c 0,28.237661 -0.28615,35.725365 -1.524658,39.895875 -1.718695,5.787474 -5.316531,10.578317 -9.612423,12.799809 -2.595578,1.342226 -2.961395,1.336065 -3.49669,-0.05889 z"
     id="path4138"
     inkscape:connector-curvature="0" />
</svg>
