<?xml version="1.0" encoding="UTF-8" standalone="no"?>
<!-- Created with Inkscape (http://www.inkscape.org/) -->

<svg
   xmlns:dc="http://purl.org/dc/elements/1.1/"
   xmlns:cc="http://creativecommons.org/ns#"
   xmlns:rdf="http://www.w3.org/1999/02/22-rdf-syntax-ns#"
   xmlns:svg="http://www.w3.org/2000/svg"
   xmlns="http://www.w3.org/2000/svg"
   xmlns:sodipodi="http://sodipodi.sourceforge.net/DTD/sodipodi-0.dtd"
   xmlns:inkscape="http://www.inkscape.org/namespaces/inkscape"
   id="svg2"
   version="1.1"
   inkscape:version="0.91 r13725"
   width="500"
   height="99"
   viewBox="0 0 500 99"
   sodipodi:docname="s2.svg">
  <metadata
     id="metadata8">
    <rdf:RDF>
      <cc:Work
         rdf:about="">
        <dc:format>image/svg+xml</dc:format>
        <dc:type
           rdf:resource="http://purl.org/dc/dcmitype/StillImage" />
        <dc:title></dc:title>
      </cc:Work>
    </rdf:RDF>
  </metadata>
  <defs
     id="defs6" />
  <sodipodi:namedview
     pagecolor="#ffffff"
     bordercolor="#666666"
     borderopacity="1"
     objecttolerance="10"
     gridtolerance="10"
     guidetolerance="10"
     inkscape:pageopacity="0"
     inkscape:pageshadow="2"
     inkscape:window-width="1366"
     inkscape:window-height="705"
     id="namedview4"
     showgrid="false"
     inkscape:zoom="0.76"
     inkscape:cx="654.14966"
     inkscape:cy="49.5"
     inkscape:window-x="-8"
     inkscape:window-y="32"
     inkscape:window-maximized="1"
     inkscape:current-layer="svg2" />
  <path
     style="fill:#414d5b"
     d="m 56.131579,99.561539 c -10.100512,-3.731568 -14.574974,-17.071161 -9.25,-27.576771 3.491823,-6.888997 6.980733,-8.362184 21.247903,-8.971897 L 80.130571,62.5 79.825278,58.5 C 79.319526,51.873582 77.410483,51 63.435475,51 l -11.974536,0 0.707068,-7.75 c 0.388888,-4.2625 0.939893,-8.145836 1.224456,-8.629635 0.284564,-0.4838 7.317277,-0.662096 15.628252,-0.396215 15.978174,0.511168 20.640751,1.62274 25.476098,6.073578 4.959967,4.565559 5.448317,7.403973 5.927467,34.452272 l 0.4473,25.25 -8.552617,0 c -7.510685,0 -8.625742,-0.230422 -9.152921,-1.891416 -0.587533,-1.851153 -0.709144,-1.850063 -5.712896,0.05121 -6.981534,2.652776 -16.280536,3.264116 -21.321567,1.401742 z M 77.520467,84.675872 c 1.313888,-0.64673 2.326388,-1.513372 2.25,-1.925872 -0.07639,-0.4125 -0.138888,-2.154086 -0.138888,-3.870191 l 0,-3.120191 -6.030286,0.436192 c -7.090055,0.512848 -9.559618,2.317689 -8.569447,6.262846 1.104373,4.40017 6.211636,5.306908 12.488621,2.217216 z m 49.845583,15.236077 c -9.16186,-2.158509 -16.32283,-8.256945 -18.59304,-15.834233 -0.62779,-2.095365 -1.13703,-10.057546 -1.13166,-17.693736 0.009,-12.516956 0.24436,-14.387805 2.39239,-19.00101 5.1177,-10.991018 17.92398,-15.762792 35.89693,-13.375639 12.55417,1.667437 11.70091,0.924719 11.70091,10.185057 l 0,8.057612 -3.25,-0.671014 c -1.7875,-0.369058 -6.93724,-0.940365 -11.44387,-1.269571 -14.17278,-1.035313 -16.30613,1.172056 -16.30613,16.871927 0,10.631456 1.62595,15.43569 5.55809,16.422594 2.9207,0.73305 19.51859,-0.121579 23.23442,-1.196345 2.27573,-0.658234 2.29036,-0.601799 2,7.714662 L 157.13158,98.5 l -6.5,1.142064 c -7.79421,1.369456 -18.09135,1.488906 -23.26553,0.269885 z m 55.06874,-0.311343 c -7.23649,-1.948111 -12.40487,-5.900149 -15.50393,-11.85518 -2.47613,-4.758038 -2.76612,-6.451977 -3.121,-18.2307 -0.50437,-16.740142 0.6898,-22.331427 5.99982,-28.092121 5.26488,-5.71171 11.53357,-7.832635 22.8219,-7.721471 10.30767,0.101506 16.11383,2.031669 21.28032,7.07429 4.9113,4.793554 6.71968,10.957954 6.71968,22.906077 l 0,9.318499 -18.5,0 -18.5,0 0,3.045455 c 0,1.944223 0.93756,3.983012 2.59282,5.638272 2.59008,2.590087 2.60668,2.592254 15.75,2.057359 7.23645,-0.294503 13.96378,-0.862198 14.94961,-1.261545 1.65118,-0.668864 1.76939,-0.06621 1.5,7.647187 L 218.13158,98.5 l -6.5,1.142064 c -8.73175,1.534186 -23.42135,1.513326 -29.19679,-0.04146 z m 18.0245,-41.929701 c 1.19203,-6.240214 -4.84792,-10.809427 -11.42114,-8.64007 -1.88206,0.621135 -3.86847,1.963714 -4.41425,2.983509 -1.15001,2.148811 -1.31332,6.331323 -0.28728,7.357363 0.38777,0.387772 4.09539,0.575272 8.23916,0.416666 6.37349,-0.243949 7.58794,-0.570144 7.88351,-2.117468 z m 38.17229,42.20197 c -3.575,-0.484148 -7.5125,-1.112179 -8.75,-1.395624 l -2.25,-0.515355 0,-45.378293 0,-45.3782951 6.75,-1.13993 c 3.7125,-0.62697 8.2125,-1.39824 10,-1.71395 l 3.25,-0.57401 0,16.0306801 0,16.030687 3.75,-1.07895 c 5.11055,-1.470407 18.92286,-1.399632 23.45002,0.12016 4.68566,1.573006 9.46603,6.96702 10.50066,11.848624 1.34932,6.366379 0.95849,34.306001 -0.53921,38.546785 -1.75504,4.969446 -5.55212,9.373082 -10.06899,11.677414 -7.4216,3.786222 -21.36608,4.914392 -36.09248,2.920057 z m 24.66483,-18.261 c 2.64553,-2.275585 2.79449,-2.877847 3.16105,-12.780146 0.48898,-13.209507 -0.92335,-17.384187 -6.21722,-18.377321 -2.09399,-0.392836 -5.29481,-0.110441 -7.82591,0.690446 L 248.13158,52.5 l -0.27539,15.75 -0.2754,15.75 6.46963,0 c 5.37841,0 6.93792,-0.402802 9.24599,-2.388125 z m 49.67892,18.409795 c -9.45173,-2.013418 -16.8754,-8.177398 -19.20232,-15.943954 -1.4787,-4.935469 -1.4787,-29.219963 0,-34.155432 1.49799,-4.999856 6.11986,-10.504775 10.84253,-12.914102 8.86299,-4.521559 25.14102,-4.535881 33.97348,-0.02989 4.90387,2.501767 9.67582,8.039292 10.98243,12.744376 1.36988,4.932916 1.35462,29.676584 -0.0214,34.632033 -1.51953,5.47243 -8.02074,12.150326 -13.72786,14.10095 -5.76106,1.969059 -17.25611,2.756979 -22.8469,1.566019 z m 15.02139,-18.09425 c 2.60077,-2.045766 2.63486,-2.237825 2.63486,-14.845013 0,-15.227982 -0.7509,-16.582407 -9.19334,-16.582407 -7.82348,0 -8.80666,1.85952 -8.80666,16.656239 0,11.338045 0.12271,12.057375 2.45455,14.389216 3.16407,3.164078 9.14862,3.341133 12.91059,0.381965 z m 51.63486,18.44435 c -10.68371,-2.056034 -18.22153,-7.751381 -21.11771,-15.955907 -1.86091,-5.271747 -1.85537,-29.444557 0.008,-34.796571 3.51839,-10.105691 13.27134,-15.833469 27.07351,-15.899917 13.25158,-0.0638 20.88053,2.958066 25.76455,10.20546 3.68528,5.468588 4.47792,10.414967 4.08872,25.515214 -0.38918,15.09989 -1.57387,19.216324 -6.98219,24.261105 -5.39862,5.035712 -19.89918,8.390256 -28.83488,6.670616 z m 13.54545,-18.826315 c 2.32421,-2.324201 2.45455,-3.071139 2.45455,-14.065742 0,-6.386158 -0.4328,-12.419895 -0.96178,-13.408304 -1.4018,-2.619286 -6.45507,-4.403391 -10.38427,-3.666269 -5.71545,1.072226 -7.01328,3.48831 -7.46736,13.901515 -0.66921,15.346881 1.45524,19.471354 10.10886,19.625665 2.75589,0.04914 4.46775,-0.604614 6.25,-2.386865 z M 11.605825,99.286212 C 11.591665,98.853795 11.479161,87.925 11.355825,75 L 11.131579,51.5 5.8420036,51.196368 0.5524273,50.892736 0.8420031,42.696368 1.1315789,34.5 6.1315786,34 11.131579,33.5 11.282324,26.185838 c 0.21605,-10.48274 1.052785,-13.77858 4.492697,-17.6964301 3.982464,-4.53577 10.629186,-6.48941 22.078502,-6.48941 l 8.858941,0 -0.290443,8.2500001 -0.290442,8.25 -6.165333,0.29552 c -3.589438,0.17205 -6.628176,0.85321 -7.273135,1.63034 -0.60929,0.73415 -1.351101,4.06922 -1.648467,7.41127 l -0.540667,6.076446 7.813801,0.293213 c 6.242089,0.234235 7.779549,0.594931 7.643519,1.793213 -0.09365,0.825 -0.466973,4.5375 -0.829594,8.25 l -0.659312,6.75 -7.041917,0 -7.041917,0 0.371511,24.25 0.371511,24.25 -9.75,0.286212 c -5.3625,0.157417 -9.761589,-0.06758 -9.775754,-0.5 z m 410.025755,-45.695861 0,-46.4096431 7.25,-1.14509 c 3.9875,-0.6298 8.48075,-1.37973 9.985,-1.66651 l 2.735,-0.52143 0.265,29.7932201 0.265,29.793221 9.0349,-14.46706 L 460.20137,34.5 470.91648,34.216168 c 5.8933,-0.156107 10.7151,-0.02275 10.7151,0.296356 0,0.319102 -4.44347,7.602771 -9.87438,16.18593 l -9.87438,15.605744 9.87438,16.404498 c 5.43091,9.022474 9.87438,16.619254 9.87438,16.881733 0,0.262479 -4.81087,0.34951 -10.69082,0.193403 L 460.24995,99.5 l -9.05919,-15 -9.05918,-15 -0.27605,15.25 -0.27604,15.25 -9.97396,0 -9.97395,0 0,-46.409649 z m 66.2947,41.901444 c -1.60199,-3.359395 -1.5865,-3.624506 0.36505,-6.25 5.51204,-7.415567 16.08211,-0.02905 10.78355,7.535699 C 497.91191,98.437854 496.51669,99 493.5587,99 c -3.5423,0 -4.13574,-0.369628 -5.63242,-3.508205 z"
     id="path4138"
     inkscape:connector-curvature="0" />
</svg>
