<?xml version="1.0" encoding="UTF-8" standalone="no"?>
<!-- Created with Inkscape (http://www.inkscape.org/) -->

<svg
   xmlns:dc="http://purl.org/dc/elements/1.1/"
   xmlns:cc="http://creativecommons.org/ns#"
   xmlns:rdf="http://www.w3.org/1999/02/22-rdf-syntax-ns#"
   xmlns:svg="http://www.w3.org/2000/svg"
   xmlns="http://www.w3.org/2000/svg"
   xmlns:sodipodi="http://sodipodi.sourceforge.net/DTD/sodipodi-0.dtd"
   xmlns:inkscape="http://www.inkscape.org/namespaces/inkscape"
   id="svg2"
   version="1.1"
   inkscape:version="0.91 r13725"
   width="216"
   height="56"
   viewBox="0 0 216 56"
   sodipodi:docname="s3.svg">
  <metadata
     id="metadata8">
    <rdf:RDF>
      <cc:Work
         rdf:about="">
        <dc:format>image/svg+xml</dc:format>
        <dc:type
           rdf:resource="http://purl.org/dc/dcmitype/StillImage" />
        <dc:title></dc:title>
      </cc:Work>
    </rdf:RDF>
  </metadata>
  <defs
     id="defs6" />
  <sodipodi:namedview
     pagecolor="#ffffff"
     bordercolor="#666666"
     borderopacity="1"
     objecttolerance="10"
     gridtolerance="10"
     guidetolerance="10"
     inkscape:pageopacity="0"
     inkscape:pageshadow="2"
     inkscape:window-width="1366"
     inkscape:window-height="705"
     id="namedview4"
     showgrid="false"
     inkscape:zoom="1.7592593"
     inkscape:cx="98.052632"
     inkscape:cy="28"
     inkscape:window-x="-8"
     inkscape:window-y="32"
     inkscape:window-maximized="1"
     inkscape:current-layer="svg2" />
  <path
     style="fill:#424e5c"
     d="m 10.516918,54.67694 c -1.1338917,-2.954876 -0.7184613,-8.143517 1.339234,-16.726751 1.096147,-4.572341 1.996147,-10.814839 2,-13.872217 0.0072,-5.677933 1.334537,-8.656157 4.007006,-8.990459 5.860603,-0.733108 6.79289,1.606134 4.37729,10.983243 -2.01486,7.821477 -1.229355,10.066086 3.522648,10.066086 3.911424,0 6.716239,-2.428107 8.64809,-7.486588 2.634258,-6.897707 1.579046,-13.09242 -2.934813,-17.229063 C 28.372586,8.5767827 27.187321,8.1373427 22.627843,8.1405807 11.090954,8.1487807 5.4706155,16.419208 8.9989539,28.195752 10.491963,33.178971 9.6279673,35.616523 6.8883449,34.150322 1.6356607,31.33917 0.0020501,19.705239 3.8114842,12.238131 7.0367577,5.9160727 12.649961,2.7369717 21.364259,2.2969197 c 5.769146,-0.291329 7.974636,0.04198 11.214409,1.694787 10.490751,5.351981 13.883027,17.0703663 8.192554,28.3006093 -3.719888,7.34126 -11.960694,11.102856 -18.415422,8.405898 -2.720052,-1.13651 -3.671441,-1.203485 -3.958964,-0.278698 -2.670303,8.588742 -3.862162,11.586952 -5.402026,13.589211 -1.61087,2.094586 -1.900563,2.172707 -2.477892,0.668213 z m 32.54624,-5.740098 c -1.748955,-1.748955 -1.443748,-6.14439 1.131829,-16.3 2.24022,-8.833287 2.341643,-9.005805 5.475336,-9.313358 3.892993,-0.382075 3.925151,-0.0341 1.054566,11.411278 -2.430432,9.690435 -1.803616,11.904472 2.560693,9.044867 2.434558,-1.595184 3.337938,-3.851937 6.56204,-16.392787 1.020903,-3.971026 1.319838,-4.25 4.55408,-4.25 1.903801,0 3.461456,0.5051 3.461456,1.122445 0,0.785437 0.441577,0.755968 1.470723,-0.09815 1.997766,-1.657998 7.989946,-1.716792 9.941026,-0.09754 1.90166,1.578238 2.057402,6.888191 0.411204,14.019905 -2.206897,9.560803 3.593319,8.809424 6.108589,-0.791326 2.445296,-9.33366 2.443206,-9.155334 0.107315,-9.155334 -3.178141,0 -2.384369,-4.219808 0.940378,-4.999189 1.744622,-0.40897 2.781694,-1.606343 3.5,-4.040994 1.506399,-5.105844 2.321248,-5.959817 5.686771,-5.959817 2.231146,0 2.901018,0.382954 2.499618,1.428986 -0.301594,0.785943 -0.84982,3.035943 -1.21828,5 -0.62922,3.354033 -0.511259,3.571014 1.941365,3.571014 1.436213,0 2.611293,0.413196 2.611293,0.918213 0,2.599931 -1.46004,4.081787 -4.021706,4.081787 -2.670688,0 -2.894186,0.366737 -4.579128,7.513883 -1.94759,8.261235 -1.313278,10.580885 2.356322,8.616975 2.01209,-1.076838 3.180013,-3.516108 5.109942,-10.672384 2.07978,-7.711934 10.11802,-12.406283 17.67205,-10.320515 3.83803,1.059731 5.46252,3.32219 5.46252,7.607738 0,5.346161 -3.88515,7.938728 -12.72375,8.490585 -4.15427,0.25938 -4.20284,0.30484 -2.95241,2.763718 1.09282,2.148948 1.93164,2.491176 5.97367,2.437163 5.71836,-0.07641 10.19453,-3.758485 11.71844,-9.639534 3.31911,-12.809058 2.75992,-11.797629 6.52259,-11.797629 1.9038,0 3.46146,0.427038 3.46146,0.948973 0,0.521936 1.59564,0.282273 3.54586,-0.532583 2.95363,-1.234102 3.99752,-1.266024 6.25,-0.191122 2.18993,1.04505 2.80349,2.144648 3.22658,5.782584 0.40554,3.486994 0.68782,4.028089 1.26151,2.418216 1.19974,-3.366663 6.21837,-7.524444 10.15365,-8.411995 10.44227,-2.355114 16.64779,6.054379 9.63932,13.06285 -2.53192,2.531919 -3.66936,2.923077 -8.5,2.923077 -6.00822,0 -6.40496,0.372791 -4.02022,3.777494 1.13199,1.61613 2.56437,2.221486 5.25,2.218768 3.66026,-0.0037 10.1933,-3.127896 10.1933,-4.874575 0,-1.276536 2.71053,-2.169996 4.5,-1.483313 0.825,0.316582 1.5,1.663597 1.5,2.993366 0,3.085092 4.30261,5.007043 7.72166,3.449221 3.87638,-1.766199 2.602,-3.839228 -3.65673,-5.948363 -5.21665,-1.757966 -7.06493,-3.91592 -7.06493,-8.24863 0,-4.461221 2.72273,-7.554225 7.4252,-8.43497 3.00629,-0.56306 3.067,-0.687035 2.72481,-5.563948 -0.68014,-9.6934843 4.13927,-14.8850503 13.81802,-14.8850503 4.65511,0 5.62141,0.389436 8.76404,3.532073 3.50105,3.50105 3.5277,3.593273 3.03352,10.5000003 l -0.49855,6.967927 2.97347,0 c 2.30057,0 2.83611,0.357959 2.36648,1.581787 -0.33385,0.869984 -0.60699,1.994984 -0.60699,2.5 0,0.505017 -1.49272,0.918213 -3.31716,0.918213 -3.30778,0 -3.32221,0.02144 -5.10717,7.592831 -1.9625,8.32452 -1.38225,10.444387 2.31697,8.464626 1.15905,-0.620304 2.10736,-1.786992 2.10736,-2.592641 0,-0.805649 0.9,-1.464816 2,-1.464816 2.43745,0 2.52348,1.305236 0.33068,5.017344 -2.21889,3.756282 -5.14994,5.19354 -9.7968,4.803908 -5.41456,-0.454004 -6.2206,-2.236926 -4.75586,-10.519728 0.66153,-3.740838 1.48459,-7.814024 1.82902,-9.051524 0.50707,-1.8219 0.2235,-2.25 -1.49041,-2.25 -1.16415,0 -2.11663,-0.413196 -2.11663,-0.918213 0,-2.413115 1.42604,-4.081787 3.48827,-4.081787 1.85659,0 2.47977,-0.815985 3.39302,-4.44282 1.57479,-6.254065 1.40656,-8.269332 -0.88129,-10.5571803 -3.58896,-3.588963 -10.17235,-2.50117 -12.53699,2.0715223 -2.27217,4.393895 -1.79744,8.232639 1.53699,12.428478 5.20097,6.544573 2.87131,11.592164 -3,6.5 -2.61761,-2.270244 -5.04427,-2.555733 -6.8,-0.8 -2.03773,2.037727 -1.40056,2.77019 4.71811,5.423785 4.20745,1.824719 6.24389,3.353112 7.04516,5.287541 1.3905,3.35697 0.1203,7.216304 -3.12266,9.48776 -3.20589,2.245492 -12.48252,2.11236 -16.34061,-0.234509 -2.90423,-1.766634 -3.09577,-1.766585 -6,0.0015 -1.97391,1.201727 -4.94761,1.827698 -8.69424,1.830158 -7.40821,0.0049 -10.85513,-2.664661 -11.72836,-9.083217 l -0.60039,-4.413018 -4.60496,0.319201 c -3.70409,0.256754 -4.74087,-0.03498 -5.2997,-1.491244 -0.46744,-1.21813 -0.0204,-2.356497 1.36646,-3.479493 2.6829,-2.172478 2.63705,-4.073168 -0.0885,-3.668015 -3.2042,0.476307 -5.73605,4.577589 -8.27778,13.408985 -2.17918,7.571673 -2.41157,7.92399 -5.42463,8.223924 -2.60813,0.259628 -3.1479,-0.03792 -3.1479,-1.735301 l 0,-2.04866 -3.25,1.981563 c -4.77805,2.913236 -12.73202,2.716492 -16.44378,-0.406743 l -2.84722,-2.395782 -2.785266,2.395782 c -3.260327,2.804415 -9.692343,3.283216 -11.694674,0.870555 -1.134485,-1.366971 -1.440699,-1.366971 -2.951185,0 -2.007396,1.816668 -8.133703,2.019402 -9.827877,0.325228 -1.524537,-1.524537 -1.534015,-7.20039 -0.02295,-13.746663 1.491151,-6.46002 0.242559,-8.360521 -3.947572,-6.008662 -2.24752,1.261501 -3.132538,3.101892 -5.282696,10.985349 -2.432291,8.917884 -2.747476,9.489219 -5.406318,9.800052 -1.585693,0.185376 -3.181549,-0.249344 -3.640314,-0.991641 -0.650559,-1.052627 -1.069652,-1.06893 -2.058506,-0.08008 -1.585903,1.585904 -8.069384,1.613905 -9.641644,0.04165 z M 115.82329,33.684881 c 1.91041,-2.301898 0.83668,-5.011589 -2.12199,-5.355131 -2.66847,-0.309846 -5.83814,2.692308 -5.83814,5.529598 0,1.784865 6.45138,1.643466 7.96013,-0.174467 z m 49,0 c 1.91041,-2.301898 0.83668,-5.011589 -2.12199,-5.355131 -2.66847,-0.309846 -5.83814,2.692308 -5.83814,5.529598 0,1.784865 6.45138,1.643466 7.96013,-0.174467 z M 47.901928,18.209284 c -2.06919,-3.866316 2.116491,-8.130083 5.96123,-6.072442 2.217612,1.18683 2.659249,4.940751 0.8,6.8 -1.834835,1.834835 -5.607124,1.428909 -6.76123,-0.727558 z"
     id="path4138"
     inkscape:connector-curvature="0" />
</svg>
