<?xml version="1.0" encoding="UTF-8" standalone="no"?>
<!-- Created with Inkscape (http://www.inkscape.org/) -->

<svg
   xmlns:dc="http://purl.org/dc/elements/1.1/"
   xmlns:cc="http://creativecommons.org/ns#"
   xmlns:rdf="http://www.w3.org/1999/02/22-rdf-syntax-ns#"
   xmlns:svg="http://www.w3.org/2000/svg"
   xmlns="http://www.w3.org/2000/svg"
   xmlns:sodipodi="http://sodipodi.sourceforge.net/DTD/sodipodi-0.dtd"
   xmlns:inkscape="http://www.inkscape.org/namespaces/inkscape"
   id="svg2"
   version="1.1"
   inkscape:version="0.91 r13725"
   width="556"
   height="113"
   viewBox="0 0 556 113"
   sodipodi:docname="s4.svg">
  <metadata
     id="metadata8">
    <rdf:RDF>
      <cc:Work
         rdf:about="">
        <dc:format>image/svg+xml</dc:format>
        <dc:type
           rdf:resource="http://purl.org/dc/dcmitype/StillImage" />
        <dc:title></dc:title>
      </cc:Work>
    </rdf:RDF>
  </metadata>
  <defs
     id="defs6" />
  <sodipodi:namedview
     pagecolor="#ffffff"
     bordercolor="#666666"
     borderopacity="1"
     objecttolerance="10"
     gridtolerance="10"
     guidetolerance="10"
     inkscape:pageopacity="0"
     inkscape:pageshadow="2"
     inkscape:window-width="1366"
     inkscape:window-height="705"
     id="namedview4"
     showgrid="false"
     inkscape:zoom="0.68345324"
     inkscape:cx="252.39474"
     inkscape:cy="56.5"
     inkscape:window-x="-8"
     inkscape:window-y="32"
     inkscape:window-maximized="1"
     inkscape:current-layer="svg2" />
  <path
     style="fill:#414d5b"
     d="M 28.5,107.74522 C 17.756425,104.33856 8.0573016,95.773589 3.1958866,85.400012 l -2.69588659,-5.752644 0,-34.683876 0,-34.683876 L 3.4431543,7.2071641 C 10.649786,-0.3160679 22.306256,1.8894151 25.933388,11.462468 26.520024,13.010772 27,18.973272 27,24.712468 l 0,10.4349 19.532119,0 c 21.193406,0 24.920328,0.708502 27.935806,5.310704 4.09166,6.244662 2.458057,13.934462 -3.766474,17.72978 C 67.805092,59.953866 65.570215,60.140248 47.25,60.14363 l -20.25,0.0037 0,7.014685 c 0,6.590814 0.206666,7.240397 3.420136,10.75 l 3.420136,3.735315 18.373869,0.5 c 15.299033,0.416326 18.824381,0.79519 21.065936,2.263927 8.37805,5.489561 8.539986,17.825633 0.299958,22.850393 -2.739249,1.67039 -5.182263,1.87122 -22.080035,1.81505 -12.408821,-0.0413 -20.387617,-0.50316 -23,-1.33152 z m 79.22862,-1.01864 C 96.346508,102.046 88.475053,93.066597 85.469354,81.334208 84.233907,76.511786 83.940969,71.234326 84.184521,58.187117 84.470344,42.875371 84.696986,41.021602 86.595512,38.467014 91.266139,32.182384 101.23226,32.069379 106.4263,38.242155 108.95589,41.248402 109,41.574249 109,57.256212 c 0,21.379935 1.90425,25.700279 11.73987,26.635329 3.86706,0.367633 5.29881,0.02735 7.63131,-1.813719 C 133.23859,78.235917 134,74.854414 134,57.079487 l 0,-16.132119 3.32113,-3.321131 c 4.10036,-4.100354 9.00304,-5.205916 13.93943,-3.143359 6.51765,2.723248 7.17752,4.849954 7.73944,24.943516 l 0.5,17.879496 3.73531,3.420739 c 4.21012,3.855553 8.78422,4.49624 13.75365,1.92645 C 182.56152,79.771394 183,78.184072 183,60.892743 c 0,-17.14246 0.70364,-20.365148 5.39027,-24.687683 3.75417,-3.462506 11.46529,-3.462506 15.21946,0 4.5696,4.214594 5.39027,7.674714 5.39027,22.72653 0,22.261657 -1.97151,29.07597 -11.25095,38.887604 -7.01741,7.419876 -13.89781,10.590356 -24.14081,11.124056 -9.68204,0.50448 -14.20469,-0.57877 -21.99033,-5.26704 l -5.84214,-3.51795 -2.87229,2.41687 c -7.99771,6.72963 -24.24285,8.64694 -35.17486,4.15145 z M 222.23531,105.72553 218.5,102.30369 218.20705,72.663052 c -0.28224,-28.557134 -0.21681,-29.763827 1.78985,-33.010671 4.22459,-6.835526 15.33466,-8.048838 20.75162,-2.266249 C 244.6417,41.542095 245,44.408408 245,71.396743 c 0,23.981898 -0.16192,26.453654 -1.97876,30.206747 -2.4765,5.11577 -6.48057,7.54388 -12.44022,7.54388 -3.85455,0 -5.22277,-0.56098 -8.34571,-3.42184 z M 281,107.31857 C 270.1432,103.28034 262.37021,96.254118 257.58181,86.150233 L 254.5,79.647368 l 0,-34.683876 0,-34.683876 2.94315,-3.0724519 c 5.11605,-5.340808 11.85906,-6.005066 17.91999,-1.765312 C 279.76223,8.5191141 281,12.7293 281,24.615249 l 0,10.532119 12.54966,0 c 13.63317,0 16.58583,0.814202 20.36204,5.614879 2.54992,3.241688 2.76017,9.439148 0.45276,13.345288 -3.0717,5.199974 -5.89014,6.039833 -20.26875,6.039833 l -13.09571,0 0,6.595708 c 0,11.669893 4.0323,15.400897 16.65429,15.409869 10.41194,0.0074 14.50462,1.272446 18.37395,5.679369 2.94264,3.351477 3.15701,4.067586 2.73633,9.140469 -0.39593,4.774437 -0.93891,5.946247 -4.09582,8.839347 l -3.63938,3.33524 -12.76468,-0.0775 C 288.9448,109.01328 284.28559,108.54066 281,107.31857 Z M 350.22212,107.176 C 339.27494,103.23671 329.79367,93.68136 325.93302,82.697135 324.17339,77.690651 324,74.255034 324,44.394857 c 0,-34.9041289 0.0174,-35.0413029 4.95411,-38.9812649 6.41019,-5.115976 16.63227,-2.597537 20.0535,4.9406269 1.51881,3.346457 1.95331,6.5534 1.97043,14.543149 l 0.022,10.25 12.54966,0 c 13.63317,0 16.58583,0.814202 20.36204,5.614879 1.39577,1.774423 2.0883,4.107306 2.0883,7.034665 0,3.591478 -0.61569,5.052166 -3.42059,8.115141 l -3.4206,3.735315 -14.0794,0.325584 -14.07941,0.325584 0,6.474076 c 0,11.869227 3.80243,15.371111 16.70034,15.380333 4.28981,0.0031 9.40024,0.450219 11.35651,0.993671 8.62929,2.397226 12.65436,12.774285 7.75225,19.986184 -3.59645,5.29105 -5.85196,5.98768 -19.3091,5.96375 -9.22748,-0.0164 -13.21942,-0.46013 -17.27788,-1.92055 z m 69.06392,0.52062 c -9.90264,-3.09481 -19.14596,-11.023815 -23.85499,-20.463033 -2.09868,-4.206791 -2.81067,-7.34036 -3.19353,-14.055171 -1.05119,-18.436304 6.56133,-30.939709 22.61766,-37.149024 8.1621,-3.156454 24.06166,-3.202607 33.14482,-0.09621 15.2581,5.218194 26.20526,19.82883 24.72131,32.994328 -0.58446,5.185322 -2.80761,7.871546 -7.62122,9.208672 -1.98005,0.550019 -13.14809,1.002545 -24.81787,1.005612 l -21.21777,0.0056 0.81466,2.202241 c 0.44806,1.211233 2.57106,3.123583 4.71778,4.249667 3.38877,1.777624 6.07741,2.087007 20.40311,2.347797 9.075,0.165205 17.75872,0.791239 19.29716,1.391187 7.15969,2.792085 7.52349,14.782004 0.55781,18.384104 -3.73567,1.93179 -39.3697,1.91165 -45.56893,-0.0258 z M 446,60.581627 c 0,-3.972258 -6.43573,-7.434259 -13.82,-7.434259 -5.3302,0 -11.39824,3.179173 -11.9964,6.285168 -0.29834,1.54917 0.93271,1.714832 12.74308,1.714832 C 440.117,61.147368 446,60.892784 446,60.581627 Z M 484.23531,105.72659 480.5,102.30582 480.18292,85.126769 c -0.37315,-20.216583 1.11972,-27.168981 7.55012,-35.161426 4.77161,-5.930723 7.72515,-8.214427 14.96447,-11.570677 5.28513,-2.450257 7.1039,-2.724334 20.39864,-3.073945 16.44522,-0.432459 19.43208,0.364909 22.94433,6.125196 2.47919,4.066005 2.48239,8.331662 0.009,12.387629 -3.10116,5.086015 -5.29208,5.76803 -20.28259,6.313822 l -13.73282,0.5 -3.26718,3.266548 -3.26718,3.266549 -0.5,17.563632 -0.5,17.563633 -3.73531,3.41982 c -3.10166,2.83995 -4.50304,3.41982 -8.2644,3.41982 -3.76181,0 -5.16237,-0.5797 -8.26469,-3.42078 z M 221.88235,22.265015 C 218.36131,18.743975 218,17.895437 218,13.147368 c 0,-4.7480689 0.36131,-5.5966069 3.88235,-9.117647 3.40072,-3.4007119 4.46138,-3.8823529 8.54966,-3.8823529 8.72254,0 13.94812,4.870377 13.94812,12.9999999 0,8.129624 -5.22558,13 -13.94812,13 -4.08828,0 -5.14894,-0.481641 -8.54966,-3.882353 z"
     id="path4138"
     inkscape:connector-curvature="0" />
</svg>
